<?xml version="1.0" encoding="UTF-8"?>
<svg id="Layer_1" data-name="Layer 1" xmlns="http://www.w3.org/2000/svg" viewBox="0 0 100 100">
  <defs>
    <style>
      .cls-1 {
        fill: #565656;
      }

      .cls-2 {
        fill: #39df64;
      }
    </style>
  </defs>
  <rect class="cls-1" width="100" height="100"/>
  <path class="cls-2" d="M54.31,46.59c-1.96,4.11-3.51,7.52-5.93,11.98l-1.42,2.37c6.61,1.67,15.85,5.36,22.12,10.38,6.41,5.15,7.82,13.37,6.14,16.29-.54,1.04-1.15,1.6-1.69,1.88-2.9,1.6-1.42-.91-.88-2.09,1.08-2.44,1.28-9.47-3.3-13.58-6.54-5.99-15.85-8.01-24.41-9.75-3.51,5.08-7.55,9.19-11.94,11.35-14.09,7.03-23.67-8.7-5.53-14.34,4.79-1.46,12-1.67,16.93-.77,2.56-4.11,4.65-8.29,7.08-13.44-19.42,.63-25.49-21.03-2.43-26.46,2.83-.7,3.1,.77,.14,1.18-13.89,1.74-18.41,26.18,3.24,23.54,.81-1.88,5.73-14.9,5.73-14.9,9.98-26.53,23.81-21.31,24.28-15.6,1.15,14.07-13.76,29.46-28.12,31.96Zm-26.03,17.34c-16.32,4.32-8.7,15.67,3.64,9.54,3.64-1.81,7.15-5.08,10.39-9.82-4.45-.97-9.64-.91-14.03,.28Zm32.91-31.34s-3.17,6.2-5.93,12.12c12.14-2.79,24.48-15.67,24.41-28.55-.07-4.67-8.03-4.67-18.48,16.43Z"/>
</svg>